# xmcd
#
# Track frame offsets:
#	150
#	12918
#	24431
#	39641
#	54535
#	69406
#	81363
#	98011
#	108332
#	120705
#	130814
#	141584
#	152843
#	176463
#
# Disc length: 2503 seconds
#
# Revision: 1
# Processed by: cddbd v1.5PL3 Copyright (c) Steve Scherf et al.
# Submitted via: audiograbber 1.83.01
#
DISCID=b909c50e
DTITLE=Monogram - Cestou Odyssea
DYEAR=2004
DGENRE=Bluegrass
TTITLE0=Cestou Odyssea (Universe)
TTITLE1=Sen
TTITLE2=Kyvadlo èasù
TTITLE3=Pán co kdysi doutník
TTITLE4=Osud nikdo nezmìní
TTITLE5=Jsem jarní pøíval
TTITLE6=Ten plamen pálí dál
TTITLE7=Vosa v láhvi
TTITLE8=Nechte slzy spát
TTITLE9=Píseò univerzálního bleugrassáka (PUB)
TTITLE10=Jen pojï dál
TTITLE11=Sliby chyby
TTITLE12=Jake the snake
TTITLE13=Novej den
EXTD=
EXTT0=
EXTT1=
EXTT2=
EXTT3=
EXTT4=
EXTT5=
EXTT6=
EXTT7=
EXTT8=
EXTT9=
EXTT10=
EXTT11=
EXTT12=
EXTT13=
PLAYORDER=
